# xmcd
#
# Track frame offsets: 
#        150
#        21247
#        43751
#        61382
#        81639
#        102138
#        122657
#        143368
#        162154
#        180370
#        199143
#        217045
#        232786
#        254374
#        271670
#
# Disc length: 3882 seconds
#
# Revision: 3
# Processed by: cddbd v1.5.2PL0 Copyright (c) Steve Scherf et al.
# Submitted via: ExactAudioCopyFreeDBPlugin 1.0
#
DISCID=c80f280f
DTITLE=Rinkinys - Meiles melodijos 2
DYEAR=1999
DGENRE=Pop
TTITLE0=Vairas - Vairas \\ Riesutu zydejimas '99
TTITLE1=I. Starošaitė - I. Starosaite \\ Saule leidzias (dance mix)
TTITLE2=16 Hz - 16 Hz \\ Ten, kur svajoji
TTITLE3=Arina - Arina \\ Nuvesk mane
TTITLE4=R. Janavičius - R. Janavicius \\ Gyvenimo ratu
TTITLE5=A. Pilypaitė - A. Pilypaite \\ Laivai
TTITLE6=I. Starošaitė Ir K. Jablonskis - I. Starosaite ir K. Jablonski
TTITLE6=s \\ Noriu buti su tavimi
TTITLE7=T. Augulis Ir Arina - Augulis ir Arina \\ As esu su tavimi
TTITLE8=Keistuolių Teatras - Keistuoliu teatras \\ Jureivio daina
TTITLE9=O. Vyšniauskas Ir P. Meškėla - O. Vysniauskas ir P. Meskela \\
TTITLE9=Berniukai
TTITLE10=Max - Max \\ Kelyje
TTITLE11=Smile - Smile \\ More Than The World
TTITLE12=Studija Ir L. Čekasina - Studija ir L. Cekasina \\ Laikas
TTITLE13=O. Vyšniauskas Ir I. Valinskienė - O. Vysniauskas ir I. Valin
TTITLE13=skiene \\ Prakalbek
TTITLE14=Ž. Žvagulis Ir T. Augulis - Z. Zvagulis ir T. Augulis \\ Kiem
TTITLE14=o draugams
EXTD=
EXTT0=
EXTT1=
EXTT2=
EXTT3=
EXTT4=
EXTT5=
EXTT6=
EXTT7=
EXTT8=
EXTT9=
EXTT10=
EXTT11=
EXTT12=
EXTT13=
EXTT14=
PLAYORDER=
